<svg width="24" height="24" viewBox="0 0 24 24" fill="none" xmlns="http://www.w3.org/2000/svg">
<g clip-path="url(#clip0_731_69)">
<path d="M10.9994 17.243L7.04937 13.293C6.95712 13.1975 6.84677 13.1213 6.72477 13.0689C6.60277 13.0165 6.47155 12.9889 6.33877 12.9877C6.20599 12.9866 6.07431 13.0119 5.95141 13.0622C5.82852 13.1125 5.71686 13.1867 5.62297 13.2806C5.52908 13.3745 5.45483 13.4861 5.40454 13.609C5.35426 13.7319 5.32896 13.8636 5.33012 13.9964C5.33127 14.1292 5.35886 14.2604 5.41126 14.3824C5.46367 14.5044 5.53986 14.6148 5.63537 14.707L11.2924 20.364C11.4799 20.5515 11.7342 20.6568 11.9994 20.6568C12.2645 20.6568 12.5188 20.5515 12.7064 20.364L18.3634 14.707C18.5455 14.5184 18.6463 14.2658 18.644 14.0036C18.6418 13.7414 18.5366 13.4906 18.3512 13.3052C18.1658 13.1198 17.915 13.0146 17.6528 13.0123C17.3906 13.01 17.138 13.1108 16.9494 13.293L12.9994 17.243V4C12.9994 3.73478 12.894 3.48043 12.7065 3.29289C12.5189 3.10536 12.2646 3 11.9994 3C11.7341 3 11.4798 3.10536 11.2923 3.29289C11.1047 3.48043 10.9994 3.73478 10.9994 4V17.243Z" fill="black"/>
</g>
<defs>
<clipPath id="clip0_731_69">
<rect width="24" height="24" fill="white"/>
</clipPath>
</defs>
</svg>
