<svg width="24" height="24" viewBox="0 0 24 24" fill="none" xmlns="http://www.w3.org/2000/svg">
<g clip-path="url(#clip0_731_63)">
<path d="M12.7064 3.63605C12.5188 3.44858 12.2645 3.34326 11.9994 3.34326C11.7342 3.34326 11.4799 3.44858 11.2924 3.63605L5.63537 9.29305C5.53986 9.3853 5.46367 9.49564 5.41126 9.61764C5.35886 9.73965 5.33127 9.87087 5.33012 10.0036C5.32896 10.1364 5.35426 10.2681 5.40454 10.391C5.45483 10.5139 5.52908 10.6256 5.62297 10.7194C5.71686 10.8133 5.82852 10.8876 5.95141 10.9379C6.07431 10.9882 6.20599 11.0135 6.33877 11.0123C6.47155 11.0111 6.60277 10.9836 6.72477 10.9311C6.84677 10.8787 6.95712 10.8026 7.04937 10.707L10.9994 6.75705V20C10.9994 20.2653 11.1047 20.5196 11.2923 20.7072C11.4798 20.8947 11.7341 21 11.9994 21C12.2646 21 12.5189 20.8947 12.7065 20.7072C12.894 20.5196 12.9994 20.2653 12.9994 20V6.75705L16.9494 10.707C17.138 10.8892 17.3906 10.99 17.6528 10.9877C17.915 10.9854 18.1658 10.8803 18.3512 10.6949C18.5366 10.5095 18.6418 10.2586 18.644 9.99645C18.6463 9.73425 18.5455 9.48165 18.3634 9.29305L12.7064 3.63605Z" fill="black"/>
</g>
<defs>
<clipPath id="clip0_731_63">
<rect width="24" height="24" fill="white"/>
</clipPath>
</defs>
</svg>
