<svg width="16" height="16" viewBox="0 0 16 16" fill="none" xmlns="http://www.w3.org/2000/svg">
<path d="M11.5625 11.8125C12.4653 12.5475 13 13.2522 13 14.5M4.4375 11.8125C3.53469 12.5475 3 13.2519 3 14.5M12 6.5C12.9028 5.765 13 4.74781 13 3.5M4 6.4375C3.09719 5.7025 3 4.74812 3 3.5M14.5 9.00406H12M4 9.00406H1.5M8 6V14" stroke="black" stroke-linecap="round" stroke-linejoin="round"/>
<path d="M8 14.0002C5.8 14.0002 4 12.2002 4 10.0002V6.99805C4 4.96461 5.8 3.99805 8 3.99805C10.2 3.99805 12 4.79805 12 6.99805V10.0002C12 12.2002 10.2 14.0002 8 14.0002Z" stroke="black" stroke-linecap="round" stroke-linejoin="round"/>
<path d="M5.60719 4.485C5.54466 4.32816 5.50844 4.16207 5.5 3.99344C5.50173 3.33267 5.76499 2.69946 6.23222 2.23222C6.69946 1.76499 7.33267 1.50173 7.99344 1.5H8.00656C8.66733 1.50173 9.30054 1.76499 9.76778 2.23222C10.235 2.69946 10.4983 3.33267 10.5 3.99344C10.494 4.14696 10.461 4.29823 10.4025 4.44031" stroke="black" stroke-linecap="round" stroke-linejoin="round"/>
</svg>
