<svg width="400" height="352" viewBox="0 0 400 352" fill="none" xmlns="http://www.w3.org/2000/svg">
<path d="M223.154 0.00430505C209.702 -0.0819811 196.101 1.1275 182.589 3.75074C146.28 10.8033 132.712 32.2679 134.286 52.79C142.17 53.1838 150.358 54.1735 158.731 55.7311C183.233 60.2888 209.411 69.798 234.014 84.0639C318.792 65.4129 371.163 121.679 390.161 196.295C432.178 87.3354 332.687 0.70197 223.152 0.00504354L223.154 0.00430505ZM128.016 66.4726C113.813 66.3886 101.601 68.6394 92.7482 72.9183L92.7144 72.8637C80.7603 78.5018 72.5801 87.1916 68.0707 96.97C80.4391 100.542 92.4033 107.169 103.54 115.751C118.52 127.294 132.157 142.534 143.325 159.751C242.176 161.505 279.862 236 270.705 318.503C337.915 239.687 306.359 149.072 233.629 100.646C208.28 84.4681 180.52 73.8777 155.435 69.2117C145.776 67.4151 136.537 66.5243 128.016 66.4741V66.4726ZM49.4464 107.923C3.61425 106.922 -22.7346 167.517 26.3464 187.754C114.637 224.159 106.586 291.71 55.8039 352C153.139 316.696 169.374 224.975 125.125 160.204L125.253 160.197C115.717 146.773 104.644 134.991 93.0805 126.081C80.7206 116.557 67.938 110.459 56.0854 108.502C53.8906 108.171 51.6713 107.977 49.4447 107.923H49.4464Z" fill="white" fill-opacity="0.4"/>
</svg>
