<svg width="20" height="20" viewBox="0 0 20 20" fill="none" xmlns="http://www.w3.org/2000/svg">
<g clip-path="url(#clip0_160_14)">
<path d="M2.93 17.07C1.9749 16.1475 1.21308 15.0441 0.688989 13.824C0.164899 12.604 -0.110963 11.2918 -0.122501 9.96402C-0.13404 8.63622 0.118977 7.31943 0.621786 6.09046C1.1246 4.8615 1.86713 3.74498 2.80605 2.80605C3.74498 1.86713 4.8615 1.1246 6.09046 0.621786C7.31943 0.118977 8.63622 -0.13404 9.96402 -0.122501C11.2918 -0.110963 12.604 0.164899 13.824 0.688989C15.0441 1.21308 16.1475 1.9749 17.07 2.93C18.8916 4.81602 19.8995 7.34205 19.8767 9.96402C19.854 12.586 18.8023 15.0941 16.9482 16.9482C15.0941 18.8023 12.586 19.854 9.96402 19.8767C7.34205 19.8995 4.81602 18.8916 2.93 17.07ZM4.34 15.66C5.84113 17.1611 7.87709 18.0045 10 18.0045C12.1229 18.0045 14.1589 17.1611 15.66 15.66C17.1611 14.1589 18.0045 12.1229 18.0045 10C18.0045 7.87709 17.1611 5.84113 15.66 4.34C14.1589 2.83888 12.1229 1.99555 10 1.99555C7.87709 1.99555 5.84113 2.83888 4.34 4.34C2.83888 5.84113 1.99555 7.87709 1.99555 10C1.99555 12.1229 2.83888 14.1589 4.34 15.66ZM14.24 7.17L11.41 10L14.24 12.83L12.83 14.24L10 11.41L7.17 14.24L5.76 12.83L8.59 10L5.76 7.17L7.17 5.76L10 8.59L12.83 5.76L14.24 7.17Z" fill="black"/>
</g>
<defs>
<clipPath id="clip0_160_14">
<rect width="20" height="20" fill="white"/>
</clipPath>
</defs>
</svg>
