<svg width="490" height="492" viewBox="0 0 490 492" fill="none" xmlns="http://www.w3.org/2000/svg">
<path d="M64.2024 0.889648C75.4748 18.3834 88.8029 33.5346 107.219 48.0673C96.5073 45.6956 72.4502 50.1856 62.1863 63.7525C59.9961 42.6011 57.4408 21.1076 64.2024 0.889648ZM102.057 70.2074C107.293 70.343 112.747 71.7604 118.06 74.8622C124.096 79.0341 136.267 150.532 154.21 182.29C160.447 174.888 163.44 169.027 165.795 161.888C170.134 148.737 209.139 161.105 205.428 173.98C191.063 223.804 194.048 248.527 197.71 277.978C198.817 286.898 176.216 301.187 153.756 298.883C104.512 259.46 32.2135 176.277 33.7102 168.726C36.6764 153.767 62.9686 141.688 75.1338 157.083C84.2284 168.591 95.8106 183.945 108.303 190.705C94.8521 157.482 67.7454 97.1578 72.2333 87.5343C76.7326 77.8837 88.6788 69.8612 102.057 70.2074ZM0.117188 98.2633C15.9276 111.271 34.6707 119.299 48.9375 127.224C33.2148 127.746 23.4046 136.238 16.715 147.023C9.11592 138.898 0.884813 116.878 0.117188 98.2633ZM425.798 192.869C432.558 213.087 430.001 234.579 427.812 255.732C417.548 242.165 393.492 237.673 382.779 240.046C401.195 225.513 414.525 210.363 425.798 192.869ZM387.943 262.188C401.321 261.84 413.266 269.863 417.767 279.512C422.255 289.136 395.145 349.458 381.695 382.681C394.187 375.922 405.773 360.567 414.866 349.06C427.031 333.666 453.322 345.743 456.288 360.703C457.784 368.253 385.485 451.441 336.242 490.863C313.782 493.168 291.183 478.875 292.291 469.957C295.952 440.505 298.935 415.785 284.57 365.959C280.859 353.085 319.866 340.714 324.205 353.865C326.561 361.004 329.551 366.867 335.788 374.27C353.731 342.512 365.904 271.013 371.94 266.843C377.254 263.74 382.707 262.323 387.943 262.188ZM489.883 290.244C489.115 308.858 480.884 330.876 473.285 339C466.595 328.215 456.783 319.726 441.06 319.205C455.327 311.278 474.072 303.25 489.882 290.244H489.883Z" fill="white" fill-opacity="0.4"/>
</svg>
