<svg width="16" height="16" viewBox="0 0 16 16" fill="none" xmlns="http://www.w3.org/2000/svg">
<path d="M12 4C12.2761 4 12.5 3.77614 12.5 3.5C12.5 3.22386 12.2761 3 12 3C11.7239 3 11.5 3.22386 11.5 3.5C11.5 3.77614 11.7239 4 12 4Z" fill="black"/>
<path d="M12.9999 1C10.879 1.00265 8.84568 1.84635 7.34596 3.34607C5.84624 4.84579 5.00254 6.87908 4.99989 9V10H1.49989C1.40102 10 1.30437 10.0294 1.22216 10.0843C1.13996 10.1392 1.07589 10.2173 1.03805 10.3087C1.00022 10.4 0.990318 10.5005 1.0096 10.5975C1.02889 10.6945 1.07649 10.7836 1.14639 10.8535L5.14639 14.8535C5.21632 14.9234 5.3054 14.971 5.40238 14.9903C5.49935 15.0096 5.59987 14.9997 5.69122 14.9618C5.78257 14.924 5.86065 14.8599 5.91559 14.7777C5.97054 14.6955 5.99987 14.5989 5.99989 14.5V11H6.99989C9.12081 10.9974 11.1541 10.1536 12.6538 8.65393C14.1535 7.15421 14.9972 5.12092 14.9999 3V1H12.9999ZM4.99989 13.293L2.70689 11H4.99989V13.293ZM5.99989 10V9C6.00002 7.19482 6.7005 5.4601 7.95389 4.161L11.8389 8.046C10.5398 9.29939 8.80507 9.99987 6.99989 10H5.99989ZM13.9999 3C14.0005 4.56096 13.4757 6.07669 12.5099 7.303L8.69739 3.49C9.92357 2.52431 11.4391 1.99946 12.9999 2H13.9999V3Z" fill="black"/>
</svg>
