<svg width="491" height="490" viewBox="0 0 491 490" fill="none" xmlns="http://www.w3.org/2000/svg">
<path d="M491 64.0852C473.506 75.3576 458.355 88.6857 443.822 107.101C446.194 96.3901 441.704 72.333 428.137 62.0692C449.289 59.8789 470.782 57.3236 491 64.0852ZM421.682 101.94C421.547 107.175 420.129 112.63 417.027 117.943C412.856 123.979 341.358 136.15 309.6 154.092C317.002 160.329 322.863 163.323 330.002 165.678C343.153 170.016 330.784 209.021 317.91 205.31C268.085 190.946 243.363 193.931 213.911 197.593C204.992 198.7 190.702 176.099 193.007 153.639C232.429 104.395 315.612 32.0963 323.163 33.593C338.123 36.5592 350.201 62.8514 334.807 75.0166C323.299 84.1113 307.944 95.6934 301.185 108.186C334.408 94.7349 394.732 67.6282 404.355 72.1161C414.006 76.6154 422.028 88.5616 421.682 101.94ZM393.626 0C380.618 15.8104 372.591 34.5536 364.665 48.8203C364.144 33.0976 355.652 23.2874 344.867 16.5978C352.991 8.99873 375.011 0.767625 393.626 0ZM299.021 425.68C278.803 432.441 257.31 429.884 236.158 427.694C249.725 417.431 254.217 393.374 251.844 382.662C266.377 401.078 281.527 414.408 299.021 425.68ZM229.702 387.826C230.049 401.204 222.027 413.149 212.377 417.65C202.754 422.137 142.431 395.028 109.209 381.577C115.967 394.07 131.323 405.655 142.83 414.749C158.224 426.914 146.147 453.204 131.186 456.171C123.636 457.667 40.449 385.368 1.02682 336.125C-1.27814 313.665 13.0147 291.065 21.9331 292.174C51.3845 295.835 76.1049 298.818 125.931 284.453C138.805 280.742 151.176 319.749 138.025 324.088C130.886 326.444 125.022 329.434 117.619 335.671C149.378 353.613 220.876 365.787 225.047 371.823C228.15 377.136 229.566 382.59 229.702 387.826ZM201.646 489.766C183.031 488.998 161.014 480.767 152.889 473.168C163.675 466.478 172.163 456.666 172.685 440.943C180.611 455.21 188.639 473.955 201.646 489.765V489.766Z" fill="black"/>
<path d="M165.199 320.516C179.732 302.101 194.883 288.772 212.377 277.5C192.159 270.738 170.665 273.294 149.514 275.484C163.081 285.748 167.571 309.805 165.199 320.516Z" fill="black"/>
<path d="M338.002 215.5C359.155 217.689 380.647 220.247 400.865 213.486C383.371 202.214 368.221 188.883 353.688 170.468C356.061 181.18 351.569 205.236 338.002 215.5Z" fill="black"/>
</svg>
