<svg width="16" height="16" viewBox="0 0 16 16" fill="none" xmlns="http://www.w3.org/2000/svg">
<path d="M5.46553 1.14514C5.65951 1.36747 5.79904 1.63192 5.87307 1.91753C5.9471 2.20315 5.95359 2.50208 5.89203 2.79064C6.33934 2.56503 6.82548 2.42657 7.32453 2.38264C8.09622 2.31525 8.87055 2.47829 9.54953 2.85114C11.3159 3.82066 12.77 5.27268 13.742 7.03764C13.9998 7.50329 14.1595 8.01676 14.2114 8.54646C14.2632 9.07615 14.2061 9.61085 14.0435 10.1176C14.341 10.1858 14.6171 10.3265 14.847 10.5271L14.849 10.5286C15.679 11.2576 15.719 12.5276 14.947 13.2936C14.6484 13.5921 14.2589 13.7826 13.84 13.8351C13.79 14.2416 13.61 14.6306 13.298 14.9431C13.1143 15.1272 12.8946 15.2715 12.6527 15.367C12.4108 15.4625 12.1518 15.5072 11.8919 15.4983C11.6319 15.4894 11.3766 15.4271 11.1418 15.3152C10.907 15.2034 10.6977 15.0444 10.527 14.8481V14.8471C10.3257 14.6164 10.1848 14.3393 10.117 14.0406C9.61051 14.2023 9.07638 14.2593 8.54715 14.2081C8.01791 14.1569 7.50463 13.9985 7.03853 13.7426C5.2752 12.771 3.82342 11.3194 2.85153 9.55614C2.45828 8.8454 2.29677 8.02961 2.38953 7.22264C2.44237 6.75891 2.57802 6.30844 2.79003 5.89264C2.50151 5.95405 2.20265 5.94744 1.91713 5.87332C1.63161 5.79921 1.36726 5.65963 1.14503 5.46564L1.14303 5.46414C0.948686 5.2931 0.791449 5.08404 0.681023 4.84988C0.570596 4.61572 0.509323 4.36141 0.500983 4.10265C0.492644 3.84389 0.537415 3.58616 0.632534 3.34538C0.727653 3.10459 0.871103 2.88584 1.05403 2.70264C1.35044 2.40192 1.7399 2.21036 2.15903 2.15914C2.20903 1.75614 2.38803 1.36364 2.70053 1.05114L2.70203 1.04964C2.88589 0.867651 3.10499 0.725124 3.34588 0.630798C3.58677 0.536473 3.84439 0.492334 4.10294 0.501088C4.36149 0.509842 4.61553 0.571305 4.84949 0.681708C5.08345 0.792112 5.2924 0.949131 5.46353 1.14314L5.46553 1.14514ZM10.1905 12.9376C10.2389 12.8076 10.301 12.683 10.377 12.5636C10.0598 12.7998 9.67448 12.9264 9.27903 12.9246C8.78403 12.9246 8.32403 12.7346 7.97403 12.3846C7.62403 12.0346 7.43403 11.5746 7.43403 11.0796C7.43403 10.5846 7.62403 10.1246 7.97403 9.77464L9.77403 7.97464C10.124 7.62464 10.584 7.43464 11.079 7.43464C11.569 7.43464 12.034 7.62964 12.384 7.97464C12.734 8.32464 12.924 8.78464 12.924 9.27964C12.924 9.68214 12.799 10.0611 12.564 10.3771C12.683 10.3006 12.81 10.2381 12.941 10.1896C13.1425 9.77118 13.2408 9.31058 13.2278 8.84634C13.2149 8.38211 13.091 7.92772 12.8665 7.52114C11.9861 5.92188 10.6688 4.60615 9.06853 3.72764C8.56285 3.45008 7.98618 3.3288 7.41153 3.37914C6.72876 3.43787 6.0884 3.73486 5.60253 4.21814L4.21753 5.60814C3.77101 6.05435 3.4817 6.63365 3.39322 7.25867C3.30474 7.88369 3.42191 8.52053 3.72703 9.07314C4.60742 10.6707 5.92258 11.986 7.52003 12.8666C7.9276 13.0898 8.38246 13.2126 8.84695 13.2249C9.31144 13.2373 9.77219 13.1388 10.191 12.9376M3.14453 2.38164V2.39164C3.13103 2.79364 2.80703 3.14164 2.37953 3.14464C2.14892 3.14714 1.92862 3.24058 1.76653 3.40464L1.76353 3.40814C1.40103 3.77014 1.41353 4.36614 1.80503 4.71414C1.96826 4.85465 2.17624 4.93235 2.39161 4.93326C2.60698 4.93418 2.81562 4.85826 2.98003 4.71914C3.09125 4.62002 3.22931 4.55603 3.37683 4.53521C3.52435 4.51439 3.67472 4.53768 3.80903 4.60214L4.60053 3.80714C4.53646 3.67297 4.51343 3.52286 4.53433 3.37565C4.55523 3.22844 4.61914 3.09068 4.71803 2.97964C4.85715 2.81523 4.93307 2.60659 4.93215 2.39122C4.93124 2.17585 4.85354 1.96787 4.71303 1.80464C4.6321 1.71287 4.53331 1.63857 4.4227 1.58627C4.31208 1.53397 4.19196 1.50478 4.06968 1.50047C3.9474 1.49617 3.82553 1.51684 3.71151 1.56123C3.59749 1.60562 3.49371 1.67279 3.40653 1.75864C3.23303 1.93264 3.14653 2.15614 3.14353 2.38164M10.3675 9.67314L9.67253 10.3681C9.67001 10.3706 9.66805 10.3736 9.66675 10.3768C9.66546 10.3801 9.66487 10.3836 9.66503 10.3871C9.66503 10.3958 9.66753 10.4021 9.67253 10.4061L11.2675 12.0011C11.3982 12.1314 11.4743 12.3065 11.4804 12.491C11.4864 12.6754 11.4219 12.8551 11.3 12.9936C10.9955 13.3456 10.9935 13.8601 11.281 14.1916C11.3617 14.2843 11.4606 14.3594 11.5715 14.4123C11.6824 14.4651 11.8031 14.4945 11.9259 14.4987C12.0487 14.5029 12.171 14.4817 12.2853 14.4365C12.3995 14.3914 12.5033 14.3231 12.59 14.2361C12.7564 14.072 12.8511 13.8488 12.8535 13.6151C12.856 13.1871 13.2045 12.8631 13.607 12.8501L13.612 12.8496H13.617C13.842 12.8461 14.0665 12.7596 14.24 12.5861L14.2415 12.5846C14.598 12.2311 14.5885 11.6326 14.19 11.2811C13.8585 10.9941 13.345 10.9966 12.993 11.3011C12.8545 11.423 12.6747 11.4874 12.4902 11.4812C12.3058 11.4751 12.1307 11.3989 12.0005 11.2681L10.4055 9.67314C10.4031 9.67062 10.4001 9.66865 10.3968 9.66736C10.3936 9.66607 10.39 9.66548 10.3865 9.66564C10.3831 9.66555 10.3797 9.66617 10.3765 9.66746C10.3733 9.66875 10.3704 9.67069 10.368 9.67314" fill="black"/>
</svg>
