<svg width="374" height="342" viewBox="0 0 374 342" fill="none" xmlns="http://www.w3.org/2000/svg">
<path d="M95.9842 0.906265C64.1639 1.35158 38.8749 21.0547 13.4764 30.8516C5.64832 50.2188 7.02332 71.4688 20.5233 84.0469C29.7108 75.6094 80.0467 48.9375 94.8124 49.2031C115.906 60.7656 108.484 108.656 97.703 123.266C92.9374 129.594 72.3905 128.813 65.9061 122.406C71.0624 109.906 76.2967 97.4844 91.2967 86.9375C85.5155 65.8438 43.953 88.9688 26.0858 93.8906L24.9921 135.375C-30.3126 150.766 21.9452 207.172 42.2186 223.5C41.4452 249.438 48.6171 271.703 96.3749 278.188C148.484 300.141 186.687 334.125 244.5 341.078C284.109 342.016 290.75 326.625 285.75 297.641C294.734 281.859 300.672 265.531 298.328 247.719C290.515 262.328 275.281 276.234 260.672 285.609C258.015 284.75 255.437 283.734 252.859 282.719C260.594 268.812 267 254.516 266.922 238.5C256.297 252.172 245.203 264.828 231.531 273.5C225.125 270.297 219.031 266.859 213.25 263.187C224.265 252.719 228.328 239.516 233.094 226.703C222.156 236.391 207 242.094 190.906 246.859C187.312 243.734 183.719 240.453 180.203 237.016L190.437 212.719L171.687 228.109C167.156 223.109 162.703 217.719 158.328 212.016L165.75 192.25L151.531 202.953C143.719 189.437 132.469 179.516 128.719 176.312C131.531 159.359 154.89 139.906 154.89 139.906C168.015 137.328 177.078 142.094 187.859 146L184.265 164.125L202.078 151.313C204.344 152.094 206.687 152.953 209.031 153.891L204.812 175.375L224.265 159.516C231.453 162.172 238.719 164.75 245.906 167.172C242.312 178.031 234.812 188.031 227.937 198.109C242.469 191.234 258.015 185.453 267.937 173.891C275.047 175.844 282.156 177.563 289.187 178.891C286.219 192.797 280.594 205.844 272.937 218.266C290.906 208.266 305.125 196.781 310.75 181.859C315.75 182.25 320.672 182.406 325.515 182.328C328.094 198.734 324.734 215.141 320.047 231.547C335.359 215.531 351.297 199.672 354.265 178.734C356.922 178.109 359.578 177.406 362.234 176.469C364.031 158.266 361.765 160.141 373.64 148.344C374.265 116.156 349.734 94.75 312.703 78.6563L214.812 56.625C200.75 42.8203 191.844 26.1797 148.875 19.6485C133.094 9.14064 112.859 0.656265 95.9842 0.906265ZM153.094 51C160.516 68.5781 144.969 106.469 144.109 107.484C127.547 104.984 141.766 61.9375 128.641 51C132.937 40.1953 150.828 43.4375 153.094 51ZM177.781 62.0938C210.515 68.2656 238.484 87.4844 241.375 103.031C243.094 112.094 242.547 119.281 236.453 123.188C233.562 116.938 228.094 113.891 219.031 115.141C213.797 96.8594 182.703 109.203 171.687 112.328C168.484 91.625 172.469 81.8594 177.781 62.0938ZM269.031 96.9375C274.109 96.7031 278.64 99.2031 279.656 104.984C280.281 124.438 253.797 130.453 254.734 109.906C255.594 101.859 262.703 97.1719 269.031 96.9375ZM310.594 97.875C310.594 97.875 340.281 102.406 350.515 112.172C357.078 118.344 360.984 137.094 360.984 137.094C358.719 128.734 314.031 98.8906 310.594 97.875ZM88.953 138.891C103.719 138.734 118.328 139.594 131.297 141.391L107.312 165.375C86.2968 163.734 60.2889 151 45.1014 141.938C59.0936 139.984 74.1874 138.969 88.953 138.891ZM60.6092 173.187C67.078 172.953 73.953 187.484 66.9999 192.172C62.203 194.828 54.1405 187.25 54.1405 181.781C55.6718 175.609 58.1327 173.266 60.6092 173.187Z" fill="white" fill-opacity="0.4"/>
</svg>
