<svg width="16" height="16" viewBox="0 0 16 16" fill="none" xmlns="http://www.w3.org/2000/svg">
<g clip-path="url(#clip0_721_72)">
<path d="M11.6734 0.575327C11.1854 0.570108 10.8012 0.719765 10.6558 1.03626C9.94395 2.58642 9.13255 3.75939 8.18408 4.70126C8.28008 4.73343 8.37346 4.77295 8.46339 4.81948C8.86923 5.02911 9.25302 5.37511 9.56689 5.78333C9.88077 6.19155 10.1247 6.66189 10.2163 7.1427C10.2396 7.26483 10.2525 7.38911 10.2525 7.5128C11.4703 6.75155 12.9105 6.22458 14.6548 5.9093C15.1207 5.82501 15.3939 5.01455 15.3237 4.0763L14.2251 4.04505L15.1801 3.26964C15.0505 2.8163 14.8359 2.37108 14.519 1.99714C14.0337 1.42483 13.3805 1.01664 12.7465 0.788202L11.9351 1.27551L12.023 0.60364C11.9019 0.586452 11.7852 0.576452 11.6734 0.575296L11.6734 0.575327ZM7.71633 5.2052C7.68311 5.20683 7.65195 5.21226 7.62258 5.21989C7.24833 5.54033 6.85352 5.8323 6.43702 6.10364C6.46333 6.11395 6.4892 6.12448 6.51514 6.13589C6.95648 6.32939 7.37258 6.67167 7.71733 7.09292C8.1347 7.60298 8.45545 8.2473 8.51808 8.89761C8.84102 8.57364 9.18183 8.27439 9.54445 8.00011C9.67245 7.79526 9.69852 7.54798 9.64211 7.25205C9.57386 6.89392 9.37205 6.48861 9.10305 6.13876C8.83398 5.78895 8.49742 5.49433 8.19483 5.33798C8.0057 5.2403 7.84627 5.19892 7.7163 5.20517L7.71633 5.2052ZM5.78173 6.55776C5.73845 6.55942 5.69767 6.5662 5.65773 6.57533C4.50148 7.22414 3.18623 7.76236 1.67923 8.32533C1.69717 8.32664 1.71486 8.32823 1.73298 8.3302C2.06508 8.36633 2.39161 8.4867 2.70658 8.67005L3.8843 8.15639L3.39014 9.17889C3.57748 9.34864 3.75898 9.53755 3.93214 9.74139C4.58089 10.505 5.11852 11.4872 5.40383 12.4943C5.40389 12.4946 5.40373 12.495 5.40383 12.4953C5.49695 12.8236 5.56352 13.1489 5.60108 13.464C6.25702 11.9503 6.98795 10.6746 7.86183 9.62026C8.08995 8.94901 7.79352 8.10751 7.26611 7.46308C6.97111 7.10251 6.61061 6.81564 6.2808 6.67105C6.0953 6.58967 5.92861 6.55208 5.78173 6.55776ZM10.2075 8.27164C9.97911 8.42945 9.75561 8.60008 9.53764 8.78139C10.7614 9.07076 11.4424 9.8977 12.0581 10.7238C12.3851 11.1625 12.7018 11.6022 13.0933 11.9953C13.8492 12.2811 14.4423 12.1946 15.0903 11.5285C12.2102 10.6603 12.0869 8.63439 10.2075 8.27158L10.2075 8.27164ZM1.51808 8.90345C1.1783 8.91048 0.947453 9.0833 0.788578 9.42201C0.607015 9.80911 0.566265 10.4367 0.802265 11.2052C0.981953 11.7905 1.31852 12.3839 1.7007 12.8185C2.08289 13.2531 2.51008 13.5084 2.80614 13.5187H2.80714C2.9233 13.5228 3.01192 13.4974 3.08252 13.4328L3.07667 13.4269L3.14208 13.3615C3.16686 13.325 3.18958 13.2818 3.21042 13.2306C3.29823 13.015 3.31292 12.6509 3.1528 12.1994C2.93764 11.5926 2.5553 11.2015 2.10983 11.1125L1.39208 10.9699L2.01123 10.5792L3.21342 9.82342C2.69311 9.29773 2.13373 8.9607 1.67042 8.9103C1.6173 8.90455 1.56658 8.90248 1.51805 8.90348L1.51808 8.90345ZM8.90089 9.07239L8.13433 9.86536C11.2731 10.424 9.86714 14.2718 13.1128 15.3712L12.3384 13.5812C13.3623 14.0859 14.4443 14.2882 15.3921 13.9572C11.1493 12.6463 12.3821 9.98895 8.90089 9.07239ZM3.60495 10.2668L2.79345 10.7775C3.20533 11.0431 3.51877 11.4826 3.70361 12.004C3.78392 12.2304 3.83277 12.448 3.85205 12.6534L4.58455 11.923C4.33205 11.3233 3.9897 10.749 3.60502 10.2667L3.60495 10.2668ZM4.8042 12.5285L3.48973 13.841L3.48486 13.8361C3.35189 13.9593 3.18936 14.0475 3.0103 14.0841C3.73742 14.5489 4.40542 14.6887 4.78567 14.383C4.9188 14.2759 5.00577 14.1217 5.05036 13.9328C5.03755 13.5364 4.96905 13.101 4.84233 12.6545C4.83039 12.6124 4.81714 12.5705 4.8042 12.5285Z" fill="black"/>
</g>
<defs>
<clipPath id="clip0_721_72">
<rect width="16" height="16" fill="white"/>
</clipPath>
</defs>
</svg>
